<?xml version="1.0" encoding="utf-8"?>
<!-- Generator: Adobe Illustrator 27.2.0, SVG Export Plug-In . SVG Version: 6.00 Build 0)  -->
<svg version="1.1" id="Слой_1" xmlns="http://www.w3.org/2000/svg" xmlns:xlink="http://www.w3.org/1999/xlink" x="0px" y="0px"
	 viewBox="0 0 20 20" style="enable-background:new 0 0 20 20;" xml:space="preserve">
<style type="text/css">
	.st0{fill:#FFFFFF;}
</style>
<path class="st0" d="M8.7,2C5,2,2,5,2,8.7s3,6.7,6.7,6.7c1.6,0,3.1-0.6,4.2-1.5l4,4c0.3,0.3,0.7,0.3,0.9,0c0.3-0.3,0.3-0.7,0-0.9
	c0,0,0,0,0,0l-4-4c0.9-1.1,1.5-2.6,1.5-4.2C15.3,5,12.3,2,8.7,2z M8.7,3.3c3,0,5.3,2.4,5.3,5.3S11.6,14,8.7,14s-5.3-2.4-5.3-5.3
	S5.7,3.3,8.7,3.3z"/>
</svg>
